<svg xmlns="http://www.w3.org/2000/svg" width="15.343" height="15.338" viewBox="0 0 15.343 15.338">
  <g id="bell-svgrepo-com" transform="translate(-760.5 -1273)">
    <g id="Group_256" data-name="Group 256">
      <g id="Group_255" data-name="Group 255">
        <path id="Path_262" data-name="Path 262" d="M770.068,1288.338a.622.622,0,0,1-.437-.18l-2.207-2.207a3.244,3.244,0,0,1-4.24-.3,3.247,3.247,0,0,1-.3-4.24l-2.208-2.207a.618.618,0,0,1,.436-1.054.608.608,0,0,1,.1.008,4.7,4.7,0,0,0,.686.042,4.471,4.471,0,0,0,3.118-1.1,10.74,10.74,0,0,1,3.438-2.524,4.533,4.533,0,0,1,1.654-.333,3.778,3.778,0,0,1,.671.06,3.92,3.92,0,0,1,.965.31,2.087,2.087,0,0,1,.557-1.011,2.073,2.073,0,0,1,3.538,1.473,2.088,2.088,0,0,1-1.624,2.008,3.916,3.916,0,0,1,.31.965,4.209,4.209,0,0,1-.273,2.326,10.743,10.743,0,0,1-2.524,3.437,3.952,3.952,0,0,0-1.057,2.424,5.955,5.955,0,0,0,0,1.373v.008h0a.618.618,0,0,1-.609.716Zm.045-12.857a3.24,3.24,0,0,0-1.2.251,9.723,9.723,0,0,0-3.019,2.247,5.306,5.306,0,0,1-3.265,1.425l6.812,6.813a5.327,5.327,0,0,1,1.425-3.266,9.688,9.688,0,0,0,2.248-3.018,2.9,2.9,0,0,0-.8-3.4A3.077,3.077,0,0,0,770.113,1275.48Zm-6.329,6.825h0a2.01,2.01,0,0,0,.282,2.474,1.981,1.981,0,0,0,1.414.587,2.013,2.013,0,0,0,1.063-.3l-2.759-2.758Zm9.986-8.077a.838.838,0,0,0-.6.246.845.845,0,0,0,.6,1.443.839.839,0,0,0,.6-.247.844.844,0,0,0-.6-1.442Z" fill="#b92c68"/>
      </g>
    </g>
  </g>
</svg>
