<svg xmlns="http://www.w3.org/2000/svg" width="15.82" height="15.82" viewBox="0 0 15.82 15.82">
  <g id="XMLID_843_" transform="translate(-377 -1272.5)">
    <g id="Group_251" data-name="Group 251">
      <g id="Group_250" data-name="Group 250">
        <path id="Path_257" data-name="Path 257" d="M381.7,1282.749a.517.517,0,0,1-.257-.967l1.751-1a1.767,1.767,0,0,1-.04-.469,1.745,1.745,0,0,1,.509-1.148l-2.042-3.859a.517.517,0,1,1,.913-.483l2.043,3.859a1.775,1.775,0,0,1,.326-.031,1.751,1.751,0,1,1-1.2,3.028l-1.751,1A.521.521,0,0,1,381.7,1282.749Zm3.208-3.059a.72.72,0,1,0,.72.72A.721.721,0,0,0,384.91,1279.69Z" fill="#00808d"/>
        <path id="Path_258" data-name="Path 258" d="M384.91,1288.32a7.91,7.91,0,1,1,7.91-7.91A7.919,7.919,0,0,1,384.91,1288.32Zm0-2.374a.517.517,0,0,1,.517.517v.8a6.874,6.874,0,0,0,6.338-6.337h-.8a.517.517,0,1,1,0-1.034h.8a6.876,6.876,0,0,0-6.338-6.338v.8a.517.517,0,0,1-1.034,0v-.8a6.874,6.874,0,0,0-6.337,6.338h.8a.517.517,0,0,1,0,1.034h-.8a6.87,6.87,0,0,0,6.336,6.337v-.8A.518.518,0,0,1,384.908,1285.946Z" fill="#00808d"/>
      </g>
    </g>
  </g>
</svg>
