<svg xmlns="http://www.w3.org/2000/svg" width="17.245" height="15.605" viewBox="0 0 17.245 15.605">
  <path id="heart-svgrepo-com_1_" data-name="heart-svgrepo-com (1)" d="M191.122,1288.105h0l-.347-.25c-.335-.241-8.207-5.963-8.275-10.809a4.271,4.271,0,0,1,1.85-3.567,4.534,4.534,0,0,1,2.8-.979,6.729,6.729,0,0,1,3.976,1.566,6.734,6.734,0,0,1,3.976-1.566,4.539,4.539,0,0,1,2.8.979,4.269,4.269,0,0,1,1.849,3.567c-.067,4.86-7.939,10.568-8.275,10.809l-.347.25Zm-3.976-14.416a3.371,3.371,0,0,0-2.074.736,3.1,3.1,0,0,0-1.382,2.6c.023,1.723,1.356,3.96,3.853,6.471a36.061,36.061,0,0,0,3.579,3.129,36.07,36.07,0,0,0,3.58-3.129c2.5-2.511,3.829-4.749,3.852-6.471a3.1,3.1,0,0,0-1.382-2.6,3.376,3.376,0,0,0-2.074-.736,6.035,6.035,0,0,0-3.595,1.6l-.382.318-.382-.318A6.028,6.028,0,0,0,187.146,1273.689Z" transform="translate(-182.5 -1272.5)" fill="#b92c68"/>
</svg>
