<svg xmlns="http://www.w3.org/2000/svg" width="17.5" height="12.815" viewBox="0 0 17.5 12.815">
  <g id="Group_257" data-name="Group 257" transform="translate(-569 -1274)">
    <g id="Group_254" data-name="Group 254">
      <g id="Group_253" data-name="Group 253">
        <path id="sunrise-svgrepo-com_1_" data-name="sunrise-svgrepo-com (1)" d="M577.8,1278.491a4.491,4.491,0,0,0-4.478,4.152h8.955a4.491,4.491,0,0,0-4.478-4.152Z" fill="#fb9700"/>
      </g>
      <g id="Group_252" data-name="Group 252">
        <path id="Rectangle_138" data-name="Rectangle 138" d="M577.442,1274.359a.359.359,0,0,1,.359-.359h0a.359.359,0,0,1,.358.359v2.3a.358.358,0,0,1-.358.358h0a.358.358,0,0,1-.359-.358Z" fill="#fb9700"/>
        <path id="Rectangle_139" data-name="Rectangle 139" d="M580.422,1276.263a.358.358,0,0,1,.467-.2h0a.359.359,0,0,1,.2.467l-.4.979a.358.358,0,0,1-.467.2h0a.359.359,0,0,1-.2-.467Z" fill="#fb9700"/>
        <path id="Rectangle_140" data-name="Rectangle 140" d="M584.212,1276.707a.358.358,0,0,1,.507,0h0a.359.359,0,0,1,0,.507l-1.628,1.628a.359.359,0,0,1-.507,0h0a.359.359,0,0,1,0-.507Z" fill="#fb9700"/>
        <path id="Rectangle_141" data-name="Rectangle 141" d="M584.776,1280.389a.359.359,0,0,1,.47.19h0a.359.359,0,0,1-.19.47l-.973.413a.358.358,0,0,1-.47-.19h0a.359.359,0,0,1,.19-.47Z" fill="#fb9700"/>
        <path id="Rectangle_142" data-name="Rectangle 142" d="M575.576,1277.243a.359.359,0,0,1-.2.467h0a.358.358,0,0,1-.467-.2l-.4-.979a.359.359,0,0,1,.2-.467h0a.358.358,0,0,1,.467.2Z" fill="#fb9700"/>
        <path id="Rectangle_143" data-name="Rectangle 143" d="M573.018,1278.335a.359.359,0,0,1,0,.507h0a.359.359,0,0,1-.507,0l-1.628-1.628a.359.359,0,0,1,0-.507h0a.358.358,0,0,1,.507,0Z" fill="#fb9700"/>
        <path id="Rectangle_144" data-name="Rectangle 144" d="M571.8,1280.8a.359.359,0,0,1,.19.47h0a.358.358,0,0,1-.47.19l-.973-.413a.359.359,0,0,1-.19-.47h0a.358.358,0,0,1,.47-.19Z" fill="#fb9700"/>
      </g>
    </g>
    <path id="Rectangle_145" data-name="Rectangle 145" d="M569,1282.815a.5.5,0,0,1,.5-.5H586a.5.5,0,0,1,.5.5h0a.5.5,0,0,1-.5.5H569.5a.5.5,0,0,1-.5-.5Z" fill="#fb9700"/>
    <path id="Rectangle_146" data-name="Rectangle 146" d="M571,1284.565a.25.25,0,0,1,.25-.25h13a.25.25,0,0,1,.25.25h0a.25.25,0,0,1-.25.25h-13a.25.25,0,0,1-.25-.25Z" fill="#fb9700"/>
    <path id="Rectangle_147" data-name="Rectangle 147" d="M573,1286.565a.25.25,0,0,1,.25-.25h9a.25.25,0,0,1,.25.25h0a.25.25,0,0,1-.25.25h-9a.25.25,0,0,1-.25-.25Z" fill="#fb9700"/>
  </g>
</svg>
