<svg xmlns="http://www.w3.org/2000/svg" xmlns:xlink="http://www.w3.org/1999/xlink" width="115" height="115" viewBox="0 0 115 115">
  <defs>
    <clipPath id="clip-path">
      <rect id="Rectangle_226" data-name="Rectangle 226" width="115" height="115" transform="translate(45 1111)" fill="#fff"/>
    </clipPath>
  </defs>
  <g id="Mask_Group_39" data-name="Mask Group 39" transform="translate(-45 -1111)" clip-path="url(#clip-path)">
    <g id="Group_247" data-name="Group 247" transform="translate(-14)">
      <path id="Path_50444" data-name="Path 50444" d="M12.927,0A12.927,12.927,0,0,1,25.855,12.927a13.119,13.119,0,0,1-2.183,7.191,12.781,12.781,0,0,1-10.745,5.737A12.927,12.927,0,0,1,12.927,0Z" transform="translate(102.984 1127.41)" fill="#ffc552"/>
      <g id="Group_246" data-name="Group 246">
        <path id="Path_50442" data-name="Path 50442" d="M76.566,98.448c-.482-3.967-3.388-5.478-8.286-6.227-3.435,3.139-9.2,5.537-18.8,5.537a7.65,7.65,0,0,1-3.765-.984,7.651,7.651,0,0,1-3.766.984c-9.515,0-15.26-2.355-18.705-5.451-4.4.865-7.007,2.446-7.459,6.14a8.336,8.336,0,0,0,2.091,6.57c4.609,5.24,17.222,6.109,24.329,6.159h.043a5.893,5.893,0,0,0,3.927-1.5,5.892,5.892,0,0,0,3.927,1.5h.043c7.107-.05,19.72-.919,24.331-6.16A8.32,8.32,0,0,0,76.566,98.448Z" transform="translate(70.277 1099.984)" fill="#ffc552"/>
        <path id="Path_50443" data-name="Path 50443" d="M44.64,79.376a5,5,0,0,0,3.765-1.709,5,5,0,0,0,3.765,1.709c14.431,0,19.065-5.689,20.413-10.464,3.153-11.172-9.505-24.229-15.315-27.791a4.908,4.908,0,0,0-1.226-.521,14.953,14.953,0,0,0-4.705-2.073l-3.221,3.242-3.124-3.278-.031.007a14.751,14.751,0,0,0-5.9,2.928c-5.992,3.948-17.907,16.609-14.839,27.487C25.574,73.687,30.209,79.376,44.64,79.376ZM34.883,61.268v4.277a5.639,5.639,0,0,1,1.048.654c.589.429,2.93,1.349,8.152,1.349a7.65,7.65,0,0,1,3.766.984,7.649,7.649,0,0,1,3.765-.984c4.346,0,6.69-.636,7.7-1.1.681-.139,1.361-.311,2.034-.5V60.124c1.3,2.385,1.985,4.61,1.574,6.062-.547,1.943-4.668,3.151-10.752,3.151A5,5,0,0,0,48.4,71.045a5,5,0,0,0-3.765-1.709c-6.083,0-10.2-1.208-10.752-3.151C33.545,64.97,33.973,63.21,34.883,61.268Z" transform="translate(67.797 1117.03)" fill="#ffc552"/>
        <g id="meditation-yoga-posture-of-a-sitting-man-svgrepo-com" transform="translate(70.277 1126.551)">
          <g id="Group_243" data-name="Group 243" transform="translate(15.723 0)">
            <circle id="Ellipse_20" data-name="Ellipse 20" cx="12.927" cy="12.927" r="12.927" transform="translate(16.984)" fill="#ffe5ba"/>
            <path id="Path_50425" data-name="Path 50425" d="M76.566,98.448c-.482-3.967-3.388-5.478-8.286-6.227-3.435,3.139-9.2,5.537-18.8,5.537a7.65,7.65,0,0,1-3.765-.984,7.651,7.651,0,0,1-3.766.984c-9.515,0-15.26-2.355-18.705-5.451-4.4.865-7.007,2.446-7.459,6.14a8.336,8.336,0,0,0,2.091,6.57c4.609,5.24,17.222,6.109,24.329,6.159h.043a5.893,5.893,0,0,0,3.927-1.5,5.892,5.892,0,0,0,3.927,1.5h.043c7.107-.05,19.72-.919,24.331-6.16A8.32,8.32,0,0,0,76.566,98.448Z" transform="translate(-15.723 -28.567)" fill="#ffe5ba"/>
            <path id="Path_50426" data-name="Path 50426" d="M44.64,79.376a5,5,0,0,0,3.765-1.709,5,5,0,0,0,3.765,1.709c14.431,0,19.065-5.689,20.413-10.464,3.153-11.172-9.505-24.229-15.315-27.791a4.908,4.908,0,0,0-1.226-.521,14.953,14.953,0,0,0-4.705-2.073l-3.221,3.242-3.124-3.278-.031.007a14.751,14.751,0,0,0-5.9,2.928c-5.992,3.948-17.907,16.609-14.839,27.487C25.574,73.687,30.209,79.376,44.64,79.376ZM34.883,61.268v4.277a5.639,5.639,0,0,1,1.048.654c.589.429,2.93,1.349,8.152,1.349a7.65,7.65,0,0,1,3.766.984,7.649,7.649,0,0,1,3.765-.984c4.346,0,6.69-.636,7.7-1.1.681-.139,1.361-.311,2.034-.5V60.124c1.3,2.385,1.985,4.61,1.574,6.062-.547,1.943-4.668,3.151-10.752,3.151A5,5,0,0,0,48.4,71.045a5,5,0,0,0-3.765-1.709c-6.083,0-10.2-1.208-10.752-3.151C33.545,64.97,33.973,63.21,34.883,61.268Z" transform="translate(-18.203 -11.923)" fill="#ffe5ba"/>
          </g>
        </g>
      </g>
    </g>
  </g>
</svg>
