<svg xmlns="http://www.w3.org/2000/svg" xmlns:xlink="http://www.w3.org/1999/xlink" width="115" height="115" viewBox="0 0 115 115">
  <defs>
    <clipPath id="clip-path">
      <rect id="Rectangle_225" data-name="Rectangle 225" width="115" height="115" transform="translate(45 1263)" fill="#fff"/>
    </clipPath>
  </defs>
  <g id="Mask_Group_38" data-name="Mask Group 38" transform="translate(-45 -1263)" opacity="0.5" clip-path="url(#clip-path)">
    <g id="earth-day-ecology-svgrepo-com" transform="translate(52.928 1274)">
      <g id="Group_244" data-name="Group 244" transform="translate(13.493 43.868)">
        <path id="Path_50427" data-name="Path 50427" d="M424.2,242.7a3.14,3.14,0,0,0-3.14,3.14v15.7h6.281v-15.7A3.14,3.14,0,0,0,424.2,242.7Z" transform="translate(-355.107 -242.699)" fill="#ffc552"/>
        <path id="Path_50428" data-name="Path 50428" d="M59.336,242.7a3.14,3.14,0,0,1,3.14,3.14v15.7H56.195v-15.7A3.14,3.14,0,0,1,59.336,242.7Z" transform="translate(-56.195 -242.699)" fill="#ffc552"/>
      </g>
      <circle id="Ellipse_21" data-name="Ellipse 21" cx="32.974" cy="32.974" r="32.974" transform="translate(16.634 15.604)" fill="#2cc6eb"/>
      <path id="Path_50429" data-name="Path 50429" d="M106.544,255.576a32.985,32.985,0,0,1-32.213-25.908,32.974,32.974,0,1,0,64.426,0A32.984,32.984,0,0,1,106.544,255.576Z" transform="translate(-56.936 -188.155)" fill="#2cc6eb"/>
      <path id="SVGCleanerId_0" d="M185.955,99.758l1.034,3.1a1.571,1.571,0,0,0,.993.993l2.892.964a1.57,1.57,0,0,1,1.074,1.49v3.1a1.57,1.57,0,0,1-.264.871l-2.613,3.919a1.57,1.57,0,0,0-.264.871v4.579A1.57,1.57,0,0,0,190,121.174l3.9.976a1.57,1.57,0,0,1,1.19,1.523v2.772a1.57,1.57,0,0,0,.536,1.182l11.348,9.93a1.57,1.57,0,0,0,1.531.308l2.936-.979a1.57,1.57,0,0,0,1.058-1.268l1.417-9.92a1.55,1.55,0,0,0,.016-.222v-3.029a1.57,1.57,0,0,1,1.57-1.57h3.956a1.571,1.571,0,0,0,1.226-.589l3.578-4.472a1.554,1.554,0,0,0,.331-1.186,32.993,32.993,0,0,0-45.841-25.549,1.567,1.567,0,0,0-.935,1.437v5.518a1.57,1.57,0,0,0,1.262,1.54l5.7,1.139A1.569,1.569,0,0,1,185.955,99.758Z" transform="translate(-142.34 -70.727)" fill="#66bf00"/>
      <g id="Group_245" data-name="Group 245" transform="translate(35.476 15.605)">
        <path id="SVGCleanerId_0_1_" d="M185.955,99.758l1.034,3.1a1.571,1.571,0,0,0,.993.993l2.892.964a1.57,1.57,0,0,1,1.074,1.49v3.1a1.57,1.57,0,0,1-.264.871l-2.613,3.919a1.57,1.57,0,0,0-.264.871v4.579A1.57,1.57,0,0,0,190,121.174l3.9.976a1.57,1.57,0,0,1,1.19,1.523v2.772a1.57,1.57,0,0,0,.536,1.182l11.348,9.93a1.57,1.57,0,0,0,1.531.308l2.936-.979a1.57,1.57,0,0,0,1.058-1.268l1.417-9.92a1.55,1.55,0,0,0,.016-.222v-3.029a1.57,1.57,0,0,1,1.57-1.57h3.956a1.571,1.571,0,0,0,1.226-.589l3.578-4.472a1.554,1.554,0,0,0,.331-1.186,32.993,32.993,0,0,0-45.841-25.549,1.567,1.567,0,0,0-.935,1.437v5.518a1.57,1.57,0,0,0,1.262,1.54l5.7,1.139A1.569,1.569,0,0,1,185.955,99.758Z" transform="translate(-177.816 -86.332)" fill="#63b406"/>
      </g>
      <path id="Path_50430" data-name="Path 50430" d="M102.88,231.055l-6.955-4.173a1.17,1.17,0,0,1-.508-.634l-2.737-8.21a1.171,1.171,0,0,0-1.111-.8H85.189a1.171,1.171,0,0,0-.974.521l-.648.972a1.171,1.171,0,0,1-2.145-.649h0a1.171,1.171,0,0,0-.8-1.111l-4.369-1.456a1.168,1.168,0,0,0-1.5.789,33,33,0,0,0,27.352,41.461,1.162,1.162,0,0,0,1.081-.459l1.526-2.035a1.169,1.169,0,0,0,.232-.78l-1.5-22.509A1.171,1.171,0,0,0,102.88,231.055Z" transform="translate(-56.937 -176.51)" fill="#63b406"/>
      <path id="Path_50431" data-name="Path 50431" d="M74.332,229.662a33,33,0,0,0,28.449,39.826l2.194-2.925-.738-11.073A32.99,32.99,0,0,1,74.332,229.662Z" transform="translate(-56.937 -188.15)" fill="#63b406"/>
      <path id="Path_50432" data-name="Path 50432" d="M7.364,216.641a3.2,3.2,0,0,1,2.989,3.226l3.14,14.043,9.421,7.851h3.409a.785.785,0,0,0,.694-1.151l-3.2-6.066a3.141,3.141,0,0,1,4.475-4.408s8.087,12.122,11.727,17.248a9.433,9.433,0,0,1,1.738,5.461v15.609a1.57,1.57,0,0,1-1.57,1.57H29.2a1.57,1.57,0,0,1-1.57-1.57V260.6L9.065,240.5a1.572,1.572,0,0,1-.376-.712L4.072,219.778A3.141,3.141,0,0,1,7.364,216.641Z" transform="translate(0 -177.48)" fill="#ffe5ba"/>
      <path id="Path_50433" data-name="Path 50433" d="M6.387,217.244l4.947,21.939L32.4,261.166v9.356H29.2a1.57,1.57,0,0,1-1.57-1.57V261.1L9.065,240.994a1.572,1.572,0,0,1-.376-.712L4.072,220.275A3.142,3.142,0,0,1,6.387,217.244Z" transform="translate(0 -177.977)" fill="#ffd686"/>
      <path id="Path_50434" data-name="Path 50434" d="M333.826,216.641c-1.689.08-2.614,1.577-2.989,3.226-.916,4.033-3.14,14.043-3.14,14.043l-9.421,7.851h-3.409a.785.785,0,0,1-.694-1.151l3.2-6.066a3.141,3.141,0,1,0-4.475-4.408s-8.087,12.122-11.727,17.248a9.433,9.433,0,0,0-1.738,5.461v15.609a1.57,1.57,0,0,0,1.57,1.57h10.991a1.57,1.57,0,0,0,1.57-1.57V260.6l18.56-20.107a1.572,1.572,0,0,0,.376-.712l4.617-20.007A3.14,3.14,0,0,0,333.826,216.641Z" transform="translate(-241.974 -177.48)" fill="#ffe5ba"/>
      <path id="Path_50435" data-name="Path 50435" d="M377.211,217.244l-4.947,21.939L351.2,261.166v9.356H354.4a1.57,1.57,0,0,0,1.57-1.57V261.1l18.56-20.107a1.572,1.572,0,0,0,.376-.712l4.617-20.007A3.142,3.142,0,0,0,377.211,217.244Z" transform="translate(-284.382 -177.977)" fill="#ffd686"/>
      <path id="Path_50436" data-name="Path 50436" d="M416.915,78.509a4.983,4.983,0,0,0-4.937.773,4.983,4.983,0,0,0-4.937-.773,4.6,4.6,0,0,0-2.816,4.276c0,5.557,6.8,9.023,7.095,9.168a1.484,1.484,0,0,0,1.317,0c.29-.145,7.095-3.611,7.095-9.168A4.6,4.6,0,0,0,416.915,78.509Z" transform="translate(-327.825 -64.041)" fill="#af1f5c"/>
      <path id="Path_50437" data-name="Path 50437" d="M414.361,90.535c-.29-.145-7.095-3.611-7.095-9.168a4.657,4.657,0,0,1,1.2-3.133,4.532,4.532,0,0,0-4.238,4.6c0,5.557,6.8,9.023,7.095,9.168a1.484,1.484,0,0,0,1.317,0,16.964,16.964,0,0,0,2.15-1.337A1.46,1.46,0,0,1,414.361,90.535Z" transform="translate(-327.824 -64.093)" fill="#9b0e4a"/>
      <path id="Path_50438" data-name="Path 50438" d="M34.679,78.509a4.983,4.983,0,0,0-4.937.773,4.983,4.983,0,0,0-4.937-.773,4.6,4.6,0,0,0-2.816,4.276c0,5.557,6.8,9.023,7.095,9.168a1.484,1.484,0,0,0,1.317,0c.29-.145,7.095-3.611,7.095-9.168A4.594,4.594,0,0,0,34.679,78.509Z" transform="translate(-14.678 -64.041)" fill="#af1f5c"/>
      <path id="Path_50439" data-name="Path 50439" d="M32.127,90.535c-.29-.145-7.095-3.611-7.095-9.168a4.657,4.657,0,0,1,1.2-3.133,4.532,4.532,0,0,0-4.238,4.6c0,5.557,6.8,9.023,7.095,9.168a1.484,1.484,0,0,0,1.317,0,16.965,16.965,0,0,0,2.15-1.337A1.458,1.458,0,0,1,32.127,90.535Z" transform="translate(-14.679 -64.093)" fill="#9b0e4a"/>
      <path id="Path_50440" data-name="Path 50440" d="M225.8.339a4.984,4.984,0,0,0-4.937.773,4.983,4.983,0,0,0-4.937-.773,4.6,4.6,0,0,0-2.816,4.276c0,5.557,6.8,9.023,7.095,9.168a1.484,1.484,0,0,0,1.317,0c.29-.145,7.094-3.611,7.094-9.168A4.594,4.594,0,0,0,225.8.339Z" transform="translate(-171.252 0)" fill="#af1f5c"/>
      <path id="Path_50441" data-name="Path 50441" d="M223.244,12.362c-.29-.145-7.095-3.611-7.095-9.168a4.656,4.656,0,0,1,1.193-3.13,4.532,4.532,0,0,0-4.235,4.6c0,5.557,6.8,9.023,7.095,9.168a1.484,1.484,0,0,0,1.317,0,16.97,16.97,0,0,0,2.153-1.339A1.447,1.447,0,0,1,223.244,12.362Z" transform="translate(-171.252 -0.052)" fill="#9b0e4a"/>
    </g>
  </g>
</svg>
